<?xml version="1.0" encoding="utf-8"?>
<!-- Generator: Adobe Illustrator 16.0.0, SVG Export Plug-In . SVG Version: 6.00 Build 0)  -->
<!DOCTYPE svg PUBLIC "-//W3C//DTD SVG 1.1//EN" "http://www.w3.org/Graphics/SVG/1.1/DTD/svg11.dtd">
<svg version="1.1" xmlns="http://www.w3.org/2000/svg" xmlns:xlink="http://www.w3.org/1999/xlink" x="0px" y="0px"
	 width="722.501px" height="249.166px" viewBox="0 0 722.501 249.166" enable-background="new 0 0 722.501 249.166"
	 xml:space="preserve">

<g id="keys" fill="#FFFFFF" stroke="#929292" stroke-width="1">
	<rect key-normal="`" key-shift="~" key-capslock="`" key-alt="" x="0.5" y="0.5" width="44" height="44"/>
	<rect key-normal="1" key-shift="!" key-capslock="1" key-alt="¡" x="50.5" y="0.5" width="44" height="44"/>
	<rect key-normal="2" key-shift="@" key-capslock="2" key-alt="€" x="100.5" y="0.5" width="44" height="44"/>
	<rect key-normal="3" key-shift="#" key-capslock="3" key-alt="£" x="150.5" y="0.5" width="44" height="44"/>
	<rect key-normal="4" key-shift="$" key-capslock="4" key-alt="¢" x="200.5" y="0.5" width="44" height="44"/>
	<rect key-normal="5" key-shift="%" key-capslock="5" key-alt="∞" x="250.5" y="0.5" width="44" height="44"/>
	<rect key-normal="6" key-shift="^" key-capslock="6" key-alt="§" x="300.5" y="0.5" width="44" height="44"/>
	<rect key-normal="7" key-shift="&amp;" key-capslock="7" key-alt="¶" x="350.5" y="0.5" width="44" height="44"/>
	<rect key-normal="8" key-shift="*" key-capslock="8" key-alt="•" x="400.5" y="0.5" width="44" height="44"/>
	<rect key-normal="9" key-shift="(" key-capslock="9" key-alt="ª" x="450.499" y="0.5" width="44" height="44"/>
	<rect key-normal="0" key-shift=")" key-capslock="0" key-alt="º" x="500.499" y="0.5" width="44" height="44"/>
	<rect key-normal="0" key-shift=")" key-capslock="0" key-alt="º" x="550.499" y="0.5" width="44" height="44"/>
	<rect key-normal="0" key-shift=")" key-capslock="0" key-alt="º" x="600.499" y="0.5" width="44" height="44"/>
	<rect key-special="backspace" x="650.499" y="0.5" width="71.501" height="44"/>
	<rect key-normal="]" key-shift="}" key-capslock="]" key-alt="‘" x="628" y="50.5" width="44" height="44"/>
	<rect key-normal="[" key-shift="{" key-capslock="[" key-alt="“" x="578" y="50.5" width="44" height="44"/>
	<rect key-normal="p" key-shift="P" key-capslock="P" key-alt="π" x="528" y="50.5" width="44" height="44"/>
	<rect key-normal="o" key-shift="O" key-capslock="O" key-alt="ø" x="478" y="50.5" width="44" height="44"/>
	<rect key-normal="i" key-shift="I" key-capslock="I" key-alt="^" x="428" y="50.5" width="44" height="44"/>
	<rect key-normal="u" key-shift="U" key-capslock="U" key-alt="¨" x="378" y="50.5" width="44" height="44"/>
	<rect key-normal="y" key-shift="Y" key-capslock="Y" key-alt="¥" x="328" y="50.5" width="44" height="44"/>
	<rect key-normal="t" key-shift="T" key-capslock="T" key-alt="†" x="278.001" y="50.5" width="44" height="44"/>
	<rect key-normal="r" key-shift="R" key-capslock="R" key-alt="®" x="228.001" y="50.5" width="44" height="44"/>
	<rect key-normal="e" key-shift="E" key-capslock="E" key-alt="´" x="178.001" y="50.5" width="44" height="44"/>
	<rect key-normal="w" key-shift="W" key-capslock="W" key-alt="∑" x="128.001" y="50.5" width="44" height="44"/>
	<rect key-normal="q" key-shift="Q" key-capslock="Q" key-alt="œ" x="78.001" y="50.5" width="44" height="44"/>
	<rect key-special="tab" x="0.5" y="50.5" width="71.501" height="44"/>
	<rect key-normal="\" key-shift="|" key-capslock="\" key-alt="«" x="638" y="100.5" width="44" height="44"/>
	<rect key-normal="'" key-shift="&quot;" key-capslock="'" key-alt="æ" x="588" y="100.5" width="44" height="44"/>
	<rect key-normal=";" key-shift=":" key-capslock=";" key-alt="…" x="538" y="100.5" width="44" height="44"/>
	<rect key-normal="l" key-shift="L" key-capslock="L" key-alt="¬" x="488" y="100.5" width="44" height="44"/>
	<rect key-normal="k" key-shift="K" key-capslock="K" key-alt="˚" x="438" y="100.5" width="44" height="44"/>
	<rect key-normal="j" key-shift="J" key-capslock="J" key-alt="∆" x="388" y="100.5" width="44" height="44"/>
	<rect key-normal="h" key-shift="H" key-capslock="H" key-alt="˙" x="338" y="100.5" width="44" height="44"/>
	<rect key-normal="g" key-shift="G" key-capslock="G" key-alt="©" x="288.001" y="100.5" width="44" height="44"/>
	<rect key-normal="f" key-shift="F" key-capslock="F" key-alt="ƒ" x="238.001" y="100.5" width="44" height="44"/>
	<rect key-normal="d" key-shift="D" key-capslock="D" key-alt="∂" x="188.001" y="100.5" width="44" height="44"/>
	<rect key-normal="s" key-shift="S" key-capslock="S" key-alt="ß" x="138.001" y="100.5" width="44" height="44"/>
	<rect key-normal="a" key-shift="A" key-capslock="A" key-alt="å" x="88.001" y="100.5" width="44" height="44"/>
	<rect key-special="capslock" x="0.5" y="100.5" width="81.501" height="44"/>
	<rect key-special="shift" x="616.001" y="150.5" width="106" height="44"/>
	<rect key-normal="/" key-shift="?" key-capslock="/" key-alt="÷" x="566" y="150.5" width="44" height="44"/>
	<rect key-normal="." key-shift="&gt;" key-capslock="." key-alt="≥" x="516" y="150.5" width="44" height="44"/>
	<rect key-normal="," key-shift="&lt;" key-capslock="," key-alt="≤" x="466" y="150.5" width="44" height="44"/>
	<rect key-normal="m" key-shift="M" key-capslock="M" key-alt="µ" x="416" y="150.5" width="44" height="44"/>
	<rect key-normal="n" key-shift="N" key-capslock="N" key-alt="~" x="366" y="150.5" width="44" height="44"/>
	<rect key-normal="b" key-shift="B" key-capslock="B" key-alt="∫" x="316" y="150.5" width="44" height="44"/>
	<rect key-normal="v" key-shift="V" key-capslock="V" key-alt="√" x="266.001" y="150.5" width="44" height="44"/>
	<rect key-normal="c" key-shift="C" key-capslock="C" key-alt="ç" x="216.001" y="150.5" width="44" height="44"/>
	<rect key-normal="x" key-shift="X" key-capslock="X" key-alt="≈" x="166.001" y="150.5" width="44" height="44"/>
	<rect key-normal="z" key-shift="Z" key-capslock="Z" key-alt="Ω" x="116.001" y="150.5" width="44" height="44"/>
	<rect key-special="shift" x="0.5" y="150.5" width="109.5" height="44"/>
	<rect key-special="clear" x="0.5" y="200.5" width="44" height="48.166"/>
	<rect key-special="alt" x="100.5" y="200.5" width="44" height="48.166"/>
	<rect key-normal=" " key-shift=" " key-capslock=" " key-alt=" " x="150.5" y="200.5" width="324.834" height="48.166"/>
	<rect key-special="alt" x="481.334" y="200.5" width="44" height="48.167"/>
	<rect key-special="right" x="679.088" y="200.5" width="42.913" height="48.167"/>
	<rect key-special="left" x="581.502" y="200.5" width="42.913" height="48.167"/>
	<polygon key-special="enter" points="688,144.5 688,94.5 678,94.5 678,50.5 722,50.5 722,144.5"/>
</g>
<g font-family="sans-serif" font-size="20" transform="translate(-1.5 0)">
    <g id="normal">
        <text transform="matrix(1 0 0 1 20.6499 28.5)">`</text>
        <text transform="matrix(1 0 0 1 66.9399 28.5)">1</text>
        <text transform="matrix(1 0 0 1 116.9399 28.5)">2</text>
        <text transform="matrix(1 0 0 1 166.9399 28.5)">3</text>
        <text transform="matrix(1 0 0 1 216.9399 28.5)">4</text>
        <text transform="matrix(1 0 0 1 316.9399 28.5)">6</text>
        <text transform="matrix(1 0 0 1 266.9399 28.5)">5</text>
        <text transform="matrix(1 0 0 1 366.9399 28.5)">7</text>
        <text transform="matrix(1 0 0 1 416.9399 28.5)">8</text>
        <text transform="matrix(1 0 0 1 466.9395 28.5)">9</text>
        <text transform="matrix(1 0 0 1 568.7988 28.5)">-</text>
        <text transform="matrix(1 0 0 1 516.9395 28.5)">0</text>
        <text transform="matrix(1 0 0 1 616.499 28.5)">=</text>
        <text transform="matrix(1 0 0 1 94.2607 78.5)">q</text>
        <text transform="matrix(1 0 0 1 142.5903 78.5)">w</text>
        <text transform="matrix(1 0 0 1 194.8105 78.5)">e</text>
        <text transform="matrix(1 0 0 1 246.8506 78.5)">r</text>
        <text transform="matrix(1 0 0 1 345.3706 78.5)">y</text>
        <text transform="matrix(1 0 0 1 297.0405 78.5)">t</text>
        <text transform="matrix(1 0 0 1 394.6304 78.5)">u</text>
        <text transform="matrix(1 0 0 1 448.1504 78.5)">i</text>
        <text transform="matrix(1 0 0 1 494.4404 78.5)">o</text>
        <text transform="matrix(1 0 0 1 597.5898 78.5)">[</text>
        <text transform="matrix(1 0 0 1 544.2598 78.5)">p</text>
        <text transform="matrix(1 0 0 1 647.5898 78.5)">]</text>
        <text transform="matrix(1 0 0 1 104.8105 128.5)">a</text>
        <text transform="matrix(1 0 0 1 155.1904 128.5)">s</text>
        <text transform="matrix(1 0 0 1 204.2607 128.5)">d</text>
        <text transform="matrix(1 0 0 1 257.4106 128.5)">f</text>
        <text transform="matrix(1 0 0 1 354.6304 128.5)">h</text>
        <text transform="matrix(1 0 0 1 304.4404 128.5)">g</text>
        <text transform="matrix(1 0 0 1 408.1504 128.5)">j</text>
        <text transform="matrix(1 0 0 1 455 128.5)">k</text>
        <text transform="matrix(1 0 0 1 508.1504 128.5)">l</text>
        <text transform="matrix(1 0 0 1 607.2197 128.5)">‘</text>
        <text transform="matrix(1 0 0 1 557.2197 128.5)">;</text>
        <text transform="matrix(1 0 0 1 656.6699 128.5)">\</text>
        <text transform="matrix(1 0 0 1 133.3711 178.5)">z</text>
        <text transform="matrix(1 0 0 1 183.1909 178.5)">x</text>
        <text transform="matrix(1 0 0 1 232.811 178.5)">c</text>
        <text transform="matrix(1 0 0 1 332.2612 178.5)">b</text>
        <text transform="matrix(1 0 0 1 283.3711 178.5)">v</text>
        <text transform="matrix(1 0 0 1 382.6309 178.5)">n</text>
        <text transform="matrix(1 0 0 1 429.6709 178.5)">m</text>
        <text transform="matrix(1 0 0 1 485.2207 178.5)">,</text>
        <text transform="matrix(1 0 0 1 584.6699 178.5)">/</text>
        <text transform="matrix(1 0 0 1 535.2207 178.5)">.</text>
    </g>
    <g id="shift">
        <g fill="lightgrey" stroke="#929292" stroke-width="1" transform="translate(1.5 0)" >
            <rect x="616.001" y="150.5" width="106" height="44"/>
            <rect x="0.5" y="150.5" width="109.5" height="44"/>
        </g>
        <text transform="matrix(1 0 0 1 70.5898 29.1665)">!</text>
        <text transform="matrix(1 0 0 1 17 29.1665)">~</text>
        <text transform="matrix(1 0 0 1 115 29.1665)">@</text>
        <text transform="matrix(1 0 0 1 167.4399 29.1665)">#</text>
        <text transform="matrix(1 0 0 1 217.4399 29.1665)">$</text>
        <text transform="matrix(1 0 0 1 317 29.1665)">^</text>
        <text transform="matrix(1 0 0 1 264.1099 29.1665)">%</text>
        <text transform="matrix(1 0 0 1 366.8901 29.1665)">&amp;</text>
        <text transform="matrix(1 0 0 1 419.48 29.1665)">*</text>
        <text transform="matrix(1 0 0 1 470.5898 29.1665)">(</text>
        <text transform="matrix(1 0 0 1 567.999 29.1665)">_</text>
        <text transform="matrix(1 0 0 1 520.5889 29.1665)">)</text>
        <text transform="matrix(1 0 0 1 616.999 29.1665)">+</text>
        <text transform="matrix(1 0 0 1 93.0903 80.1665)">Q</text>
        <text transform="matrix(1 0 0 1 141.4307 80.1665)">W</text>
        <text transform="matrix(1 0 0 1 194.5708 80.1665)">E</text>
        <text transform="matrix(1 0 0 1 243.8306 80.1665)">R</text>
        <text transform="matrix(1 0 0 1 344.3906 80.1665)">Y</text>
        <text transform="matrix(1 0 0 1 294.9404 80.1665)">T</text>
        <text transform="matrix(1 0 0 1 393.6504 80.1665)">U</text>
        <text transform="matrix(1 0 0 1 448.2812 80.1665)">I</text>
        <text transform="matrix(1 0 0 1 493.0898 80.1665)">O</text>
        <text transform="matrix(1 0 0 1 597.1699 79.1665)">{</text>
        <text transform="matrix(1 0 0 1 544.1992 80.1665)">P</text>
        <text transform="matrix(1 0 0 1 647.1699 79.1665)">}</text>
        <text transform="matrix(1 0 0 1 104.2007 130.1665)">A</text>
        <text transform="matrix(1 0 0 1 154.2007 130.1665)">S</text>
        <text transform="matrix(1 0 0 1 203.6504 130.1665)">D</text>
        <text transform="matrix(1 0 0 1 255.1304 130.1665)">F</text>
        <text transform="matrix(1 0 0 1 353.4604 130.1665)">H</text>
        <text transform="matrix(1 0 0 1 303.0903 130.1665)">G</text>
        <text transform="matrix(1 0 0 1 405.5005 130.1665)">J</text>
        <text transform="matrix(1 0 0 1 454.0205 130.1665)">K</text>
        <text transform="matrix(1 0 0 1 505.1309 130.1665)">L</text>
        <text transform="matrix(1 0 0 1 606.7988 129.1665)">“</text>
        <text transform="matrix(1 0 0 1 557.7197 129.1665)">:</text>
        <text transform="matrix(1 0 0 1 658.2793 129.1665)">|</text>
        <text transform="matrix(1 0 0 1 132.7612 180.1665)">Z</text>
        <text transform="matrix(1 0 0 1 182.7612 180.1665)">X</text>
        <text transform="matrix(1 0 0 1 231.4609 180.1665)">C</text>
        <text transform="matrix(1 0 0 1 331.8311 180.1665)">B</text>
        <text transform="matrix(1 0 0 1 282.5713 180.1665)">V</text>
        <text transform="matrix(1 0 0 1 381.4609 180.1665)">N</text>
        <text transform="matrix(1 0 0 1 430.291 180.1665)">M</text>
        <text transform="matrix(1 0 0 1 482.501 179.1665)">&lt;</text>
        <text transform="matrix(1 0 0 1 583.1299 179.1665)">?</text>
        <text transform="matrix(1 0 0 1 532.5 179.1665)">&gt;</text>
    </g>
    <g id="capslock">
        <g fill="lightgrey" stroke="#929292" stroke-width="1" transform="translate(1.5 0)" >
            <rect x="0.5" y="100.5" width="81.501" height="44"/>
        </g>
        <text transform="matrix(1 0 0 1 93.0903 80.1665)">Q</text>
        <text transform="matrix(1 0 0 1 141.4307 80.1665)">W</text>
        <text transform="matrix(1 0 0 1 194.5708 80.1665)">E</text>
        <text transform="matrix(1 0 0 1 243.8306 80.1665)">R</text>
        <text transform="matrix(1 0 0 1 344.3906 80.1665)">Y</text>
        <text transform="matrix(1 0 0 1 294.9404 80.1665)">T</text>
        <text transform="matrix(1 0 0 1 393.6504 80.1665)">U</text>
        <text transform="matrix(1 0 0 1 448.2812 80.1665)">I</text>
        <text transform="matrix(1 0 0 1 493.0898 80.1665)">O</text>
        <text transform="matrix(1 0 0 1 544.1992 80.1665)">P</text>
        <text transform="matrix(1 0 0 1 104.2007 130.1665)">A</text>
        <text transform="matrix(1 0 0 1 154.2007 130.1665)">S</text>
        <text transform="matrix(1 0 0 1 203.6504 130.1665)">D</text>
        <text transform="matrix(1 0 0 1 255.1304 130.1665)">F</text>
        <text transform="matrix(1 0 0 1 353.4604 130.1665)">H</text>
        <text transform="matrix(1 0 0 1 303.0903 130.1665)">G</text>
        <text transform="matrix(1 0 0 1 405.5005 130.1665)">J</text>
        <text transform="matrix(1 0 0 1 454.0205 130.1665)">K</text>
        <text transform="matrix(1 0 0 1 505.1309 130.1665)">L</text>
        <text transform="matrix(1 0 0 1 132.7612 180.1665)">Z</text>
        <text transform="matrix(1 0 0 1 182.7612 180.1665)">X</text>
        <text transform="matrix(1 0 0 1 231.4609 180.1665)">C</text>
        <text transform="matrix(1 0 0 1 331.8311 180.1665)">B</text>
        <text transform="matrix(1 0 0 1 282.5713 180.1665)">V</text>
        <text transform="matrix(1 0 0 1 381.4609 180.1665)">N</text>
        <text transform="matrix(1 0 0 1 430.291 180.1665)">M</text>
        <text transform="matrix(1 0 0 1 66.9399 28.5)">1</text>
        <text transform="matrix(1 0 0 1 20.6499 28.5)">`</text>
        <text transform="matrix(1 0 0 1 116.9399 28.5)">2</text>
        <text transform="matrix(1 0 0 1 166.9399 28.5)">3</text>
        <text transform="matrix(1 0 0 1 216.9399 28.5)">4</text>
        <text transform="matrix(1 0 0 1 316.9399 28.5)">6</text>
        <text transform="matrix(1 0 0 1 266.9399 28.5)">5</text>
        <text transform="matrix(1 0 0 1 366.9399 28.5)">7</text>
        <text transform="matrix(1 0 0 1 416.9399 28.5)">8</text>
        <text transform="matrix(1 0 0 1 466.9395 28.5)">9</text>
        <text transform="matrix(1 0 0 1 568.7988 28.5)">-</text>
        <text transform="matrix(1 0 0 1 516.9395 28.5)">0</text>
        <text transform="matrix(1 0 0 1 616.499 28.5)">=</text>
        <text transform="matrix(1 0 0 1 597.5898 78.5)">[</text>
        <text transform="matrix(1 0 0 1 647.5898 78.5)">]</text>
        <text transform="matrix(1 0 0 1 607.2197 128.5)">‘</text>
        <text transform="matrix(1 0 0 1 557.2197 128.5)">;</text>
        <text transform="matrix(1 0 0 1 656.6699 128.5)">\</text>
        <text transform="matrix(1 0 0 1 485.2207 178.5)">,</text>
        <text transform="matrix(1 0 0 1 584.6699 178.5)">/</text>
        <text transform="matrix(1 0 0 1 535.2207 178.5)">.</text>
    </g>
    <g id="alt">
        <g fill="lightgrey" stroke="#929292" stroke-width="1" transform="translate(1.5 0)">
            <rect x="100.5" y="200.5" width="44" height="48.166"/>
            <rect x="481.334" y="200.5" width="44" height="48.167"/>
        </g>
        <text transform="matrix(1 0 0 1 70.0898 28.5)">¡</text>
        <text transform="matrix(1 0 0 1 116.9399 28.5)">€</text>
        <text transform="matrix(1 0 0 1 166.9399 28.5)">£</text>
        <text transform="matrix(1 0 0 1 216.9399 28.5)">¢</text>
        <text transform="matrix(1 0 0 1 316.9399 28.5)">§</text>
        <text transform="matrix(1 0 0 1 265.3999 28.5)">∞</text>
        <text transform="matrix(1 0 0 1 366.5 28.5)">¶</text>
        <text transform="matrix(1 0 0 1 417.5 28.5)">•</text>
        <text transform="matrix(1 0 0 1 469.3906 28.5)">ª</text>
        <text transform="matrix(1 0 0 1 567.499 28.5)">–</text>
        <text transform="matrix(1 0 0 1 519.1592 28.5)">º</text>
        <text transform="matrix(1 0 0 1 616.499 28.5)">≠</text>
        <text transform="matrix(1 0 0 1 91.1104 78.5)">œ</text>
        <text transform="matrix(1 0 0 1 144.5308 78.5)">∑</text>
        <text transform="matrix(1 0 0 1 198.1504 78.5)">´</text>
        <text transform="matrix(1 0 0 1 242.0005 78.5)">®</text>
        <text transform="matrix(1 0 0 1 344.4404 78.5)">¥</text>
        <text transform="matrix(1 0 0 1 294.4404 78.5)">†</text>
        <text transform="matrix(1 0 0 1 398.1504 78.5)">¨</text>
        <text transform="matrix(1 0 0 1 444 78.5)">^</text>
        <text transform="matrix(1 0 0 1 494.4404 78.5)">ø</text>
        <text transform="matrix(1 0 0 1 596.2988 78.5)">“</text>
        <text transform="matrix(1 0 0 1 544.0195 78.5)">π</text>
        <text transform="matrix(1 0 0 1 647.2197 78.5)">‘</text>
        <text transform="matrix(1 0 0 1 104.8105 128.5)">å</text>
        <text transform="matrix(1 0 0 1 154.6304 128.5)">ß</text>
        <text transform="matrix(1 0 0 1 205.0005 128.5)">∂</text>
        <text transform="matrix(1 0 0 1 254.4404 128.5)">ƒ</text>
        <text transform="matrix(1 0 0 1 358.1504 128.5)">˙</text>
        <text transform="matrix(1 0 0 1 302.0005 128.5)">©</text>
        <text transform="matrix(1 0 0 1 403.6704 128.5)">∆</text>
        <text transform="matrix(1 0 0 1 458.1504 128.5)">˚</text>
        <text transform="matrix(1 0 0 1 504 128.5)">¬</text>
        <text transform="matrix(1 0 0 1 601.2988 128.5)">æ</text>
        <text transform="matrix(1 0 0 1 550 128.5)">…</text>
        <text transform="matrix(1 0 0 1 655.7402 128.5)">«</text>
        <text transform="matrix(1 0 0 1 130.4409 178.5)">Ω</text>
        <text transform="matrix(1 0 0 1 182.001 178.5)">≈</text>
        <text transform="matrix(1 0 0 1 232.811 178.5)">ç</text>
        <text transform="matrix(1 0 0 1 334.9312 178.5)">∫</text>
        <text transform="matrix(1 0 0 1 282.8213 178.5)">√</text>
        <text transform="matrix(1 0 0 1 382.001 178.5)">~</text>
        <text transform="matrix(1 0 0 1 432.6309 178.5)">µ</text>
        <text transform="matrix(1 0 0 1 482.001 178.5)">≤</text>
        <text transform="matrix(1 0 0 1 582 178.5)">÷</text>
        <text transform="matrix(1 0 0 1 532 178.5)">≥</text>
    </g>

    <g id="fixed" transform="translate(1.5 0)"> 
        <g transform="translate(-4.75 0)">
            <text transform="matrix(1 0 0 1 112.5 230.583)">alt</text>
            <text transform="matrix(1 0 0 1 494.418 230.75)">alt</text>
	</g>
        <line fill="none" stroke="#000000" stroke-width="1.25" stroke-linecap="round" 
              stroke-miterlimit="10" x1="3.667" y1="83.833" x2="23.667" y2="83.833"/>
        <line fill="none" stroke="#000000" stroke-width="1.25" stroke-linecap="round" 
              stroke-miterlimit="10" x1="25.667" y1="77.333" x2="25.667" y2="90.333"/>
        <polyline fill="none" stroke="#000000" stroke-width="1.25" stroke-linecap="round" 
              stroke-linejoin="round" stroke-miterlimit="10" points="16.445,78.611 23.667,83.833 16.445,89.055"/>
	<g>
            <line fill="none" stroke="#000000" stroke-width="1.25" stroke-linecap="round" 
                stroke-miterlimit="10" x1="717.333" y1="33" x2="697.333" y2="33"/>
            <polyline fill="none" stroke="#000000" stroke-width="1.25" stroke-linecap="round" 
                stroke-linejoin="round" stroke-miterlimit="10" points="
                704.555,38.223 697.333,33 704.555,27.778"/>
	</g>
	<g>
            <polyline fill="none" stroke="#000000" stroke-width="1.25" stroke-linecap="round" 
                stroke-linejoin="round" stroke-miterlimit="10" points="
                701.555,84.473 694.333,79.25 701.555,74.028"/>
	</g>
	<polygon fill="none" stroke="#000000" stroke-linecap="round" stroke-linejoin="round" stroke-miterlimit="10" points="
		23.25,123.847 14.75,114.75 6.25,123.847 10.5,123.847 10.5,130.8 19,130.8 19,123.847 	"/>
	<polygon fill="none" stroke="#000000" stroke-linecap="round" stroke-linejoin="round" stroke-miterlimit="10" points="
		23.25,180.547 14.75,171.45 6.25,180.547 10.5,180.547 10.5,187.5 19,187.5 19,180.547 	"/>
	<polygon fill="none" stroke="#000000" stroke-linecap="round" stroke-linejoin="round" stroke-miterlimit="10" points="
		715.75,180.547 707.25,171.45 698.75,180.547 703,180.547 703,187.5 711.5,187.5 711.5,180.547 	"/>
	
		<rect x="10.5" y="132.654" fill="none" stroke="#000000" stroke-linecap="round" stroke-linejoin="round" stroke-miterlimit="10" width="8.5" height="4.346"/>
	<path fill="none" stroke="#000000" stroke-width="1.25" stroke-linecap="round" stroke-miterlimit="10" d="M710.833,70.75h3.5
		c1.381,0,2.5,1.119,2.5,2.5v3.5c0,1.381-1.119,2.5-2.5,2.5h-20"/>
	<polygon points="604.866,233.777 597.05,238.093 604.866,242.411 	" transform="translate(0 -13)"/>
	<polygon points="698.636,242.411 706.452,238.094 698.636,233.777 	" transform="translate(0 -13)"/>
        
	<rect x="8.5" y="217.5" width="27" height="15" rx="4" ry="4" fill="none" stroke="#000000" stroke-width="1" />
        <line fill="none" stroke="#000000" stroke-width="1" stroke-linecap="round" 
              stroke-miterlimit="10" x1="12" y1="215" x2="32" y2="235" />
        <line fill="none" stroke="#000000" stroke-width="1" stroke-linecap="round" 
              stroke-miterlimit="10" x1="32" y1="215" x2="12" y2="235" />
    </g>
</g>

</svg>
