<?xml version="1.0" encoding="utf-8"?>
<!-- Generator: Adobe Illustrator 16.0.0, SVG Export Plug-In . SVG Version: 6.00 Build 0)  -->
<!DOCTYPE svg PUBLIC "-//W3C//DTD SVG 1.1//EN" "http://www.w3.org/Graphics/SVG/1.1/DTD/svg11.dtd">
<svg version="1.1" xmlns="http://www.w3.org/2000/svg" xmlns:xlink="http://www.w3.org/1999/xlink" x="0px" y="0px"
	 width="195px" height="195px" viewBox="0 0 195 195" enable-background="new 0 0 722.501 249.166"
	 xml:space="preserve">

<g id="keys" fill="#FFFFFF" stroke="#929292" stroke-width="1">
	<rect key-normal="7" x="0.5" y="0.5" width="44" height="44"/>
	<rect key-normal="8" x="50.5" y="0.5" width="44" height="44"/>
	<rect key-normal="9" x="100.5" y="0.5" width="44" height="44"/>
	<rect key-normal="4" x="0.5" y="50.5" width="44" height="44"/>
	<rect key-normal="5" x="50.5" y="50.5" width="44" height="44"/>
	<rect key-normal="6" x="100.5" y="50.5" width="44" height="44"/>
	<rect key-normal="1" x="0.5" y="100.5" width="44" height="44"/>
	<rect key-normal="2" x="50.5" y="100.5" width="44" height="44"/>
	<rect key-normal="3" x="100.5" y="100.5" width="44" height="44"/>
        
	<rect key-normal="0" x="0.5" y="150.5" width="94" height="44"/>
        
	<rect key-special="clear" x="150.5" y="0.5" width="44" height="44"/>
	<rect key-special="backspace" x="150.5" y="50.5" width="44" height="44"/>
	<rect key-special="tab" x="150.5" y="100.5" width="44" height="44"/>
	<rect key-special="enter" x="150.5" y="150.5" width="44" height="44"/>
</g>
<g font-family="sans-serif" font-size="20" transform="translate(-1.5 0)">
    <g id="normal" transform="translate(1.5 7.5)">
        <text x="22.5" y="22.5" text-anchor="middle">7</text>
        <text x="72.5" y="22.5" text-anchor="middle">8</text>
        <text x="122.5" y="22.5" text-anchor="middle">9</text>
        <text x="22.5" y="72.5" text-anchor="middle">4</text>
        <text x="72.5" y="72.5" text-anchor="middle">5</text>
        <text x="122.5" y="72.5" text-anchor="middle">6</text>
        <text x="22.5" y="122.5" text-anchor="middle">1</text>
        <text x="72.5" y="122.5" text-anchor="middle">2</text>
        <text x="122.5" y="122.5" text-anchor="middle">3</text>
        
        <text x="47.5" y="172.5" text-anchor="middle">0</text>
    </g>
    <g id="shift">
    </g>
    <g id="capslock">
    </g>
    <g id="alt">
    </g>
    <g id="fixed"> 
        <g transform="translate(-528,102)">
            <path fill="none" stroke="#000000" stroke-width="1.25" stroke-linecap="round" stroke-miterlimit="10" d="M710.833,70.75h3.5
                    c1.381,0,2.5,1.119,2.5,2.5v3.5c0,1.381-1.119,2.5-2.5,2.5h-20"/>
            <polyline fill="none" stroke="#000000" stroke-width="1.25" stroke-linecap="round" 
                stroke-linejoin="round" stroke-miterlimit="10" points="
                701.555,84.473 694.333,79.25 701.555,74.028"/>
        </g>
        
        <g transform="translate(161,45)">
            <line fill="none" stroke="#000000" stroke-width="1.25" stroke-linecap="round" 
                  stroke-miterlimit="10" x1="3.667" y1="83.833" x2="23.667" y2="83.833"/>
            <line fill="none" stroke="#000000" stroke-width="1.25" stroke-linecap="round" 
                  stroke-miterlimit="10" x1="25.667" y1="77.333" x2="25.667" y2="90.333"/>
            <polyline fill="none" stroke="#000000" stroke-width="1.25" stroke-linecap="round" 
                  stroke-linejoin="round" stroke-miterlimit="10" points="16.445,78.611 23.667,83.833 16.445,89.055"/>
        </g>
        
        <g transform="translate(172.5,22.5)">
            <rect x="-12" y="-7" width="27" height="15" rx="4" ry="4" fill="none" stroke="#000000" stroke-width="1" />
            <line fill="none" stroke="#000000" stroke-width="1" stroke-linecap="round" 
                  stroke-miterlimit="10" x1="-8" y1="-9.5" x2="11" y2="10.5" />
            <line fill="none" stroke="#000000" stroke-width="1" stroke-linecap="round" 
                  stroke-miterlimit="10" x1="11" y1="-9.5" x2="-8" y2="10.5" />
        </g>
        
	<!--<g transform="translate(-717.333,-33)">-->
	<g transform="translate(186.5,80)">
            <g transform="translate(-717.333,-33)">
                <line fill="none" stroke="#000000" stroke-width="1.25" stroke-linecap="round" 
                    stroke-miterlimit="10" x1="717.333" y1="33" x2="697.333" y2="33"/>
                <polyline fill="none" stroke="#000000" stroke-width="1.25" stroke-linecap="round" 
                    stroke-linejoin="round" stroke-miterlimit="10" points="
                    704.555,38.223 697.333,33 704.555,27.778"/>
            </g>
	</g>
        
    </g>
</g>

</svg>
